<?xml version="1.0" standalone="no"?>
<!DOCTYPE svg PUBLIC "-//W3C//DTD SVG 20010904//EN"
 "http://www.w3.org/TR/2001/REC-SVG-20010904/DTD/svg10.dtd">
<svg version="1.0" xmlns="http://www.w3.org/2000/svg"
 width="600.000000pt" height="911.000000pt" viewBox="0 0 600.000000 911.000000"
 preserveAspectRatio="xMidYMid meet">
<metadata>
Created by potrace 1.16, written by Peter Selinger 2001-2019
</metadata>
<g transform="translate(0.000000,911.000000) scale(0.100000,-0.100000)"
fill="#000000" stroke="none">
<path d="M0 4555 l0 -4555 3000 0 3000 0 0 3752 0 3752 -46 -49 c-51 -56 -51
-56 5 73 l41 93 -2 507 c-3 415 -5 502 -15 479 -7 -16 -17 -26 -22 -23 -12 8
-22 -20 -14 -40 4 -10 -2 -23 -14 -33 -21 -17 -40 -71 -25 -71 5 0 8 -13 7
-30 -1 -16 9 -60 22 -97 12 -36 23 -79 23 -94 0 -30 -14 -46 -26 -28 -5 8 -9
7 -15 -2 -12 -20 -50 5 -82 55 -15 23 -35 51 -46 60 -19 17 -20 17 -41 -4 -11
-11 -25 -18 -30 -15 -5 3 -16 -8 -25 -25 -9 -17 -24 -30 -34 -30 -10 0 -33 -7
-51 -16 -18 -9 -40 -18 -49 -18 -9 -1 -36 -8 -61 -15 -25 -7 -61 -15 -80 -16
-85 -8 -140 -18 -140 -26 0 -5 -9 -9 -20 -9 -11 0 -23 -7 -27 -16 -4 -10 -13
-14 -28 -10 -14 4 -32 -2 -48 -14 -14 -11 -40 -20 -58 -20 -18 0 -40 -7 -50
-15 -14 -13 -19 -14 -30 -3 -18 17 -110 46 -171 53 -41 5 -48 10 -48 28 0 16
-3 18 -12 9 -16 -16 -25 -15 -32 4 -4 10 -2 13 6 8 6 -4 8 -3 4 4 -3 6 -23 16
-44 22 -60 20 -82 50 -83 116 -1 31 -5 51 -9 44 -4 -6 -13 -10 -21 -9 -8 1
-27 -3 -42 -9 -37 -16 -47 -15 -47 3 0 18 36 52 64 61 11 4 29 17 39 30 21 27
37 31 37 9 0 -19 50 -41 60 -26 7 13 74 41 96 41 9 0 31 7 50 16 30 14 34 21
34 55 0 22 -4 39 -10 39 -5 0 -10 5 -10 10 0 6 -9 23 -20 38 -21 28 -21 31
-21 207 0 33 -5 63 -11 66 -11 7 0 130 18 212 l6 27 -2426 0 -2426 0 0 -4555z
m2921 3748 c-13 -23 -50 -60 -97 -98 -21 -16 -47 -40 -58 -52 -19 -22 -43 -22
-30 -1 4 7 2 8 -4 4 -7 -4 -12 -2 -12 4 0 6 -5 8 -11 4 -8 -4 -8 -8 0 -13 11
-7 4 -51 -9 -51 -11 0 -21 76 -14 108 21 95 44 123 44 52 0 -22 3 -40 8 -40 4
0 20 16 37 35 26 31 66 51 50 25 -10 -15 4 -12 33 9 48 33 77 39 63 14z m80
-14 c-38 -31 -18 -33 53 -5 35 14 77 26 92 26 l28 0 -24 -17 c-35 -25 -60 -47
-60 -53 0 -3 33 -5 74 -6 41 0 80 -5 88 -11 7 -6 31 -16 53 -23 22 -7 58 -24
80 -39 22 -14 54 -31 70 -38 l30 -11 -32 -1 c-50 -1 -39 -18 17 -26 46 -6 62
-25 22 -25 -9 0 -35 -5 -57 -11 l-40 -11 54 -22 c29 -12 71 -40 94 -63 23 -23
60 -49 82 -57 l40 -15 -52 0 c-29 -1 -53 -5 -53 -10 0 -20 117 -50 198 -51 28
0 52 -4 52 -9 0 -5 -25 -15 -55 -22 -31 -7 -52 -16 -48 -20 4 -4 40 -18 78
-32 117 -42 153 -60 131 -65 -15 -3 -3 -15 50 -49 l69 -44 -42 6 c-24 4 -43 3
-43 -2 1 -9 76 -55 172 -104 38 -19 68 -37 68 -41 0 -5 -19 -8 -42 -8 l-43 -1
70 -37 c65 -34 198 -132 190 -140 -1 -2 -27 12 -56 31 -73 47 -203 110 -267
131 -28 10 -50 21 -47 26 4 7 -56 31 -150 60 -67 21 -100 41 -84 51 10 6 5 12
-21 22 -19 7 -69 27 -110 43 -53 21 -68 30 -52 32 47 7 212 -67 276 -123 30
-26 43 -29 71 -18 12 4 -23 27 -120 75 -76 38 -150 77 -164 87 -14 10 -80 46
-146 81 -66 34 -124 66 -130 70 -18 13 -139 50 -184 55 -54 7 -61 11 -61 35 0
23 19 29 105 33 l60 2 -47 14 c-27 7 -48 17 -48 22 0 8 81 14 135 10 47 -4
-18 21 -96 35 -94 18 -106 13 -116 -50 -3 -22 -8 -35 -11 -28 -6 20 -19 14
-32 -17 -13 -32 -47 -68 -56 -59 -3 3 2 30 10 59 20 66 20 83 1 75 -20 -7 -19
3 2 26 25 28 1 21 -45 -12 -47 -34 -51 -30 -22 18 23 37 76 87 129 119 l36 22
-40 -6 c-22 -3 -61 -16 -87 -29 -61 -29 -62 -14 -1 27 l47 33 -28 7 c-37 10
-68 -6 -140 -72 l-56 -51 3 31 c2 18 9 37 15 43 7 7 12 17 12 23 0 24 133 124
165 124 6 0 -1 -9 -14 -20z m128 -1120 c-10 -77 -17 -99 -31 -99 -7 0 -8 20
-4 58 4 31 9 71 11 88 1 17 6 56 10 85 l6 54 -40 -59 c-22 -33 -48 -64 -58
-70 -17 -9 -17 -8 0 17 10 15 15 32 12 37 -3 5 0 12 6 15 5 4 8 14 5 22 -3 8
-2 12 3 9 5 -3 12 10 15 29 4 19 19 49 34 67 l27 32 7 -110 c3 -60 2 -139 -3
-175z m1043 146 c29 -14 71 -36 93 -50 22 -14 46 -23 53 -20 7 3 11 1 7 -4 -8
-14 71 -68 172 -117 60 -29 126 -52 190 -65 135 -28 140 -29 120 -40 -9 -5
-60 -19 -114 -30 -73 -16 -116 -19 -168 -15 -61 6 -68 5 -55 -8 17 -17 194
-106 210 -106 5 0 10 -4 10 -10 0 -13 -115 -13 -163 1 -22 6 -40 9 -42 7 -2
-2 23 -25 54 -53 57 -50 106 -107 132 -155 8 -14 16 -27 19 -30 3 -3 13 -20
23 -37 l18 -33 -25 0 c-14 0 -56 11 -93 25 -36 14 -70 24 -75 23 -8 -3 182
-261 211 -287 22 -18 -15 5 -58 37 -17 13 -31 19 -31 15 0 -12 85 -91 142
-132 27 -19 46 -36 44 -38 -8 -9 -143 52 -191 85 -27 19 -82 67 -121 106 -61
61 -113 129 -321 417 -18 26 -33 53 -33 60 0 14 77 -66 163 -169 71 -86 189
-213 194 -209 6 6 -120 192 -181 267 -7 9 -15 22 -19 30 -4 8 -14 25 -23 38
-37 50 9 17 81 -60 49 -51 86 -82 101 -84 13 -1 53 -18 89 -37 l64 -34 -15 28
c-8 15 -25 40 -39 53 -14 14 -26 29 -26 33 -1 9 -98 93 -107 93 -4 0 -21 13
-38 30 -18 16 -35 26 -38 23 -4 -4 -13 2 -20 13 -8 11 -39 33 -70 49 -30 16
-54 31 -52 32 2 2 30 -5 62 -16 57 -19 86 -25 110 -22 7 0 -34 46 -91 101 -57
55 -96 100 -88 100 8 0 48 -23 89 -51 66 -46 80 -52 135 -55 34 -2 69 -6 78
-9 9 -2 21 -1 28 3 8 5 -13 21 -58 46 -39 20 -97 54 -128 74 -32 20 -83 52
-112 70 -44 27 -48 32 -24 27 30 -6 30 -6 10 12 -11 10 -48 36 -82 57 -58 36
-71 46 -58 46 2 0 28 -11 57 -25z m-264 -370 c6 -13 14 -47 18 -74 l6 -50 -46
14 c-39 12 -48 12 -60 -1 -8 -7 -23 -14 -33 -14 -10 0 -39 -11 -66 -25 -33
-18 -47 -22 -47 -12 0 22 136 174 147 163 3 -3 12 1 20 9 22 22 48 18 61 -10z
m-1568 -130 c40 -21 74 -69 99 -143 28 -83 27 -127 -4 -164 -35 -41 -41 -74
-21 -115 16 -33 15 -35 -9 -79 -62 -112 -132 -204 -155 -204 -19 0 -32 26 -50
100 -7 25 -26 74 -43 110 -31 63 -32 68 -31 195 2 172 24 299 59 331 l26 24
50 -20 c28 -11 64 -27 79 -35z m1633 -30 c46 -26 65 -58 81 -131 6 -27 13 -33
44 -38 59 -9 143 -83 212 -185 33 -50 60 -94 60 -100 0 -21 -33 -18 -87 9 -73
37 -102 44 -136 31 -26 -10 -26 -11 -10 -31 11 -13 19 -16 24 -9 5 8 8 8 13 0
4 -6 -4 -13 -19 -17 -14 -3 -25 -10 -25 -16 0 -5 4 -6 10 -3 5 3 7 0 5 -7 -3
-8 -22 -23 -43 -33 -20 -11 -40 -25 -44 -31 -5 -7 -17 -10 -28 -7 -12 3 -20 0
-20 -6 0 -7 -4 -10 -9 -7 -5 3 -14 -1 -21 -9 -16 -19 -31 -19 -24 0 5 11 2 13
-9 9 -9 -3 -13 -12 -11 -19 3 -7 0 -16 -6 -20 -9 -6 -9 -10 1 -17 11 -8 11 -9
-1 -5 -8 2 -14 11 -12 20 3 16 -49 34 -66 23 -5 -3 -8 5 -8 17 1 17 -6 23 -26
25 -24 3 -28 8 -28 33 0 30 17 38 38 17 9 -9 12 -8 12 4 0 28 -17 61 -46 92
-23 24 -29 26 -33 13 -5 -12 -9 -13 -22 -3 -15 11 -15 13 1 34 10 12 25 22 34
22 9 0 16 7 16 15 0 8 7 15 16 15 8 0 12 4 9 10 -3 5 7 15 22 22 15 7 32 19
37 26 4 8 38 28 73 44 59 27 64 31 47 42 -11 7 -35 18 -54 25 -29 10 -37 9
-46 -3 -6 -9 -20 -13 -35 -10 -19 5 -21 3 -9 -5 14 -10 9 -13 -17 -10 -4 0
-10 -9 -15 -20 -8 -22 -28 -29 -28 -10 0 8 -5 8 -15 -1 -8 -7 -15 -19 -15 -27
0 -9 -6 -13 -15 -9 -9 3 -15 0 -15 -10 0 -10 -6 -14 -15 -10 -9 3 -15 0 -15
-9 0 -7 -9 -17 -20 -20 -11 -3 -20 -13 -20 -22 0 -21 -40 -74 -51 -68 -5 4 -9
19 -9 36 0 16 -4 29 -9 29 -4 0 -6 11 -3 25 3 16 13 27 28 31 26 7 31 19 12
27 -8 4 -7 6 3 6 9 1 19 11 23 24 5 18 8 20 16 7 10 -13 11 -13 9 0 -3 31 2
40 24 41 16 1 18 2 5 6 -23 6 -23 18 2 43 25 25 26 46 3 59 -25 13 -11 23 21
15 20 -5 25 -11 21 -23 -3 -9 7 -1 24 17 29 33 86 61 127 62 12 0 42 -11 67
-25z m-1904 -350 c-29 -317 -36 -348 -102 -447 -48 -72 -62 -65 -77 35 -6 44
-8 36 -9 -56 -1 -102 5 -154 65 -532 7 -49 11 -105 8 -123 -7 -37 -42 -66 -67
-56 -25 9 -57 67 -57 101 0 28 -14 71 -40 128 -9 19 -46 142 -57 192 -3 12
-16 32 -29 44 -13 12 -24 32 -24 43 0 17 -2 18 -10 6 -13 -21 -24 -5 -11 18 7
13 7 22 -2 31 -9 10 -9 12 3 11 30 -4 39 0 35 20 -2 11 0 22 6 25 5 4 9 20 9
36 0 29 68 170 125 259 l29 45 8 -64 c11 -94 18 -87 18 19 0 121 13 163 64
203 22 18 43 30 46 27 3 -2 11 9 19 25 8 17 18 32 23 33 4 2 8 18 8 36 0 18 3
36 7 39 16 17 20 -14 12 -98z m2490 -154 c38 -11 82 -27 97 -37 37 -23 117
-104 110 -111 -3 -3 -12 2 -21 11 -18 18 -40 22 -30 6 3 -6 37 -31 76 -55 38
-25 69 -50 69 -55 0 -6 -8 -18 -18 -28 -14 -14 -17 -25 -10 -42 7 -19 0 -39
-39 -104 -26 -45 -69 -119 -97 -166 -27 -47 -78 -141 -113 -210 -55 -107 -63
-119 -58 -82 4 24 16 68 26 98 11 30 21 67 24 82 4 33 24 94 60 187 15 39 27
88 26 110 0 22 6 47 13 55 18 20 25 77 14 116 -7 26 -17 36 -53 50 -39 15 -67
16 -213 10 -200 -9 -228 -3 -218 47 13 66 134 133 249 136 20 1 68 -8 106 -18z
m-958 -819 c-24 -78 -25 -86 -12 -77 6 3 13 -16 17 -42 6 -45 39 -179 62 -250
6 -18 9 -33 7 -33 -13 0 -65 131 -80 203 -10 48 -21 87 -25 87 -8 0 -20 -60
-20 -103 0 -16 -4 -26 -10 -22 -5 3 -10 15 -10 26 0 11 -6 32 -14 48 -14 26
-62 46 -218 88 -38 10 -16 31 55 53 131 39 212 70 237 90 14 10 26 15 28 10 2
-5 -6 -40 -17 -78z m-73 -260 c56 -28 78 -47 83 -72 5 -27 -12 -124 -26 -150
l-14 -25 -1 25 c-1 42 -24 71 -81 99 -102 51 -207 112 -219 126 -10 12 -9 16
1 19 69 23 188 13 257 -22z m-21 -230 c43 -21 89 -47 102 -58 19 -16 101 -169
101 -189 0 -4 6 -21 14 -38 81 -190 134 -330 205 -545 71 -211 79 -242 63
-242 -7 0 -57 39 -108 85 -90 80 -150 125 -166 125 -36 0 -156 95 -209 165
-30 39 -101 117 -159 175 -86 85 -128 117 -216 167 -221 127 -198 138 66 31
140 -57 161 -72 338 -247 204 -201 340 -313 284 -233 -28 39 -69 122 -93 189
-70 190 -120 258 -264 355 -182 124 -187 131 -71 88 32 -11 60 -19 63 -16 2 2
-22 24 -54 47 -173 128 -242 182 -239 188 2 3 63 3 134 -1 124 -7 134 -9 209
-46z m-1291 -138 c10 -41 -4 -215 -25 -313 -32 -147 -78 -233 -204 -385 -81
-97 -128 -184 -171 -319 -57 -174 -179 -434 -270 -574 -51 -79 -70 -98 -61
-61 13 55 65 259 85 333 11 44 25 98 30 120 5 22 24 85 43 140 34 99 43 121
78 202 11 24 19 48 19 54 0 6 6 25 14 42 8 18 28 75 46 127 52 159 78 212 119
245 62 49 109 115 170 235 32 63 65 130 75 148 20 39 43 42 52 6z m641 -242
c86 -114 248 -278 348 -352 57 -43 119 -85 265 -179 36 -23 75 -50 87 -60 23
-19 104 -145 136 -211 10 -19 21 -42 26 -50 5 -8 39 -78 77 -154 66 -133 151
-274 197 -325 46 -50 253 -233 307 -271 19 -13 41 -30 48 -37 8 -7 30 -26 50
-41 21 -15 42 -32 47 -38 6 -5 27 -22 48 -38 20 -15 37 -31 37 -37 0 -15 -25
-11 -49 9 -11 9 -39 31 -62 47 -22 17 -89 71 -148 120 -300 250 -596 484 -728
577 -63 44 -113 88 -203 178 -170 171 -276 321 -409 584 -135 266 -186 386
-164 386 4 0 45 -48 90 -108z m2181 5 c11 -22 11 -35 2 -63 -11 -34 -8 -112 6
-149 3 -8 21 -23 40 -34 25 -15 34 -27 34 -46 0 -27 -20 -55 -39 -55 -6 0 -11
-4 -11 -10 0 -17 -47 -22 -76 -8 -16 8 -50 13 -76 13 l-47 -2 25 24 c14 13 27
23 30 23 3 0 23 18 44 40 l39 40 -4 78 c-3 42 -7 101 -11 130 -5 48 -4 53 13
50 10 -2 24 -16 31 -31z m-1239 -570 c63 -27 223 -168 208 -184 -11 -10 -172
84 -250 147 -122 98 -115 104 42 37z m-1695 -134 c-4 -10 -7 -28 -7 -40 1 -13
-3 -20 -8 -17 -5 3 -9 -2 -9 -11 0 -37 -132 -326 -212 -467 -34 -58 -114 -158
-177 -218 -73 -70 -134 -146 -212 -262 -81 -122 -244 -308 -269 -308 -5 0 -10
-7 -10 -15 0 -24 -23 -7 -55 40 -16 24 -32 42 -36 39 -6 -3 -41 59 -44 76 0 3
-9 26 -19 52 -22 56 -15 82 42 161 25 35 35 59 34 83 -2 41 9 43 37 8 17 -22
20 -35 15 -79 -6 -48 -4 -53 21 -73 61 -48 129 -19 183 78 20 36 51 88 69 117
18 29 33 54 33 57 0 5 66 104 145 216 70 100 127 173 298 378 153 183 203 234
181 185z m2779 -130 c-4 -29 3 -54 26 -103 17 -36 31 -72 31 -81 0 -9 9 -36
20 -60 12 -28 20 -66 20 -105 0 -33 6 -83 14 -110 8 -27 17 -67 21 -89 18
-105 56 -185 121 -255 74 -81 84 -104 84 -206 0 -104 -6 -112 -50 -65 -35 36
-105 84 -150 103 -19 8 -50 27 -67 42 -48 40 -46 100 4 199 45 89 50 163 14
242 l-23 50 -12 -48 c-22 -82 -65 -108 -117 -69 -51 38 -79 44 -189 37 -95 -7
-110 -5 -146 13 -62 32 -110 90 -155 187 -80 174 -93 200 -113 227 -11 15 -17
31 -13 34 6 6 50 -20 326 -198 66 -42 118 -71 115 -65 -3 8 13 19 38 27 32 11
51 28 80 69 42 60 46 85 22 112 -28 31 1 88 66 132 35 24 39 22 33 -20z
m-3834 -279 c13 -9 29 -31 37 -49 13 -31 9 -75 -6 -75 -4 0 -10 -14 -14 -32
-3 -18 -18 -44 -32 -59 -14 -15 -31 -45 -38 -69 l-12 -42 -19 42 c-18 40 -18
42 1 88 14 34 30 52 57 67 44 24 46 38 12 87 -38 56 -32 74 14 42z m3809 -917
c23 -9 103 -24 178 -32 74 -8 144 -20 154 -25 17 -9 19 -18 13 -78 -3 -37 -7
-69 -9 -71 -8 -9 -237 99 -304 143 -54 35 -100 76 -100 89 0 6 5 6 13 0 6 -5
31 -17 55 -26z m529 -29 c68 -132 192 -425 231 -548 26 -82 46 -170 40 -176
-3 -2 -18 16 -34 40 -101 152 -125 186 -156 212 -32 27 -36 36 -46 113 -7 46
-26 122 -43 170 -38 103 -52 241 -24 241 2 0 17 -24 32 -52z"/>
<path d="M2236 6709 c-45 -53 -34 -109 25 -140 44 -22 46 -26 22 -45 -17 -13
-17 -13 0 -14 58 -1 117 67 117 137 0 34 -5 46 -31 67 -45 38 -99 36 -133 -5z"/>
</g>
</svg>
